<svg id="Ebene_1" data-name="Ebene 1" xmlns="http://www.w3.org/2000/svg" width="111.05" height="125.352" viewBox="0 0 111.05 125.352"><defs><style>.cls-1,.cls-3{fill:none;stroke-linecap:round;stroke-linejoin:round;}.cls-1{stroke:#81949c;}.cls-2{fill:#81949c;}.cls-3{stroke:#c39052;}</style></defs><title>02</title><g id="Ebene_2" data-name="Ebene 2"><g id="Ebene_1-2" data-name="Ebene 1-2"><polyline class="cls-1" points="30.43 24.31 26.38 4.34 45.28 0.5 49.32 20.38"/><polyline class="cls-1" points="29.14 19.59 26.68 19.93 26.4 29.74"/><polyline class="cls-1" points="48.33 15.51 51.2 15.15 56.08 25.31"/><path class="cls-2" d="M37.8,15.94a1,1,0,0,1,.782-1.178l.008,0h0a1,1,0,0,1,1.17.78h0A1,1,0,0,1,39,16.72h-.2A1,1,0,0,1,37.8,15.94ZM36.21,8.1a1,1,0,0,1,.782-1.178l.008,0h0a1,1,0,0,1,1.18.78h0a1,1,0,0,1-.78,1.18h-.2A1,1,0,0,1,36.21,8.1Z" transform="translate(0 0)"/><path class="cls-1" d="M28.81,40.47a14.34,14.34,0,1,1,28.12,0" transform="translate(0 0)"/><path class="cls-1" d="M24.94,39.82a18.06,18.06,0,1,1,35.75.7" transform="translate(0 0)"/><line class="cls-3" x1="40.76" y1="37.17" x2="33.63" y2="33.52"/><line class="cls-3" x1="44.24" y1="36.62" x2="47.57" y2="32.36"/><circle class="cls-3" cx="42.96" cy="38.1" r="1.73"/><path class="cls-1" d="M98.8,41.31c2.3-5.83,3.67-13.7,2.88-24.3,0,0-14.74,4.47-19-6.71h-.23c-4.29,11.18-19,6.71-19,6.71-.78,10.53.35,18,2.64,23.86" transform="translate(0 0)"/><polyline class="cls-3" points="76.19 41.05 71.98 37.93 75.34 34.01 78.99 37.14 88.63 21.78 93.11 24.34 82.34 41.08"/><polyline class="cls-1" points="16.21 40.49 110.55 41.62 100.99 92.75 23.18 92.75 12.73 18.43 0.5 18.43"/><line class="cls-1" x1="23.18" y1="92.75" x2="25.77" y2="110.05"/><path class="cls-1" d="M82.11,115a5.71,5.71,0,1,1-8.072.212c.069-.072.139-.143.212-.212" transform="translate(0 0)"/><path class="cls-1" d="M36.4,114.93a5.71,5.71,0,1,1-8.07.275c.042-.046.086-.091.13-.135" transform="translate(0 0)"/><line class="cls-1" x1="31.31" y1="48.62" x2="35.96" y2="83.46"/><line class="cls-1" x1="63.54" y1="48.62" x2="63.54" y2="83.46"/><line class="cls-1" x1="94.27" y1="48.62" x2="88.46" y2="83.46"/><path class="cls-1" d="M105.05,41.5a4.754,4.754,0,0,0-4.68-5.13" transform="translate(0 0)"/><path class="cls-1" d="M24.89,35.85s-6.36-1.11-8.68,4.67" transform="translate(0 0)"/><path class="cls-1" d="M56.43,25.7s3.78-2.92,6.75-1" transform="translate(0 0)"/><rect class="cls-1" x="24.91" y="110.65" width="62.32" height="4.15"/></g></g></svg>