<svg id="Ebene_1" data-name="Ebene 1" xmlns="http://www.w3.org/2000/svg" width="112.528" height="112.96" viewBox="0 0 112.528 112.96"><defs><style>.cls-1,.cls-2{fill:none;stroke-linecap:round;stroke-linejoin:round;}.cls-1{stroke:#81949c;}.cls-2{stroke:#c39052;}</style></defs><title>03</title><g id="Ebene_2" data-name="Ebene 2"><g id="Ebene_1-2" data-name="Ebene 1-2"><line class="cls-1" x1="39.83" y1="102.26" x2="31.42" y2="112.46"/><path class="cls-1" d="M101.64,47.91c-1.13,3.18-6.6,22.68-7.87,23.39-5.15,2.88-18.39,4.71-24.31,7-1.33.51-2.65,1-4,1.61-6.27,2.78-10.38,3.6-13.72,7.65" transform="translate(0 0)"/><path class="cls-1" d="M59.28,18.55A54.416,54.416,0,0,1,69.9,13.76c3.1-1.06,10.66,3.18,10.66,3.18,6.37-2.05,23.79,3.51,22,11.32,0,0,5.62-1.61,8.07,2.64,3.85,6.67-1.13,9.12-4.4,12.49C100,49.83,87.45,61,86.6,62.81" transform="translate(0 0)"/><line class="cls-1" x1="22.68" y1="60.91" x2="35.53" y2="44.65"/><line class="cls-1" x1="0.5" y1="88.96" x2="7.78" y2="79.75"/><polyline class="cls-1" points="12.36 79.56 3.53 72.35 15.35 57.84 24.11 65"/><polyline class="cls-1" points="8.5 76.83 6.86 78.59 12.69 86.12"/><polyline class="cls-1" points="20.78 61.54 21.55 60.54 29.74 64.42"/><polyline class="cls-1" points="47.78 84.54 57.28 92.18 45.46 106.7 35.46 98.54"/><polyline class="cls-1" points="51.72 87.49 53.36 85.73 47.53 78.19"/><polyline class="cls-1" points="39.75 102.19 37.78 104.54 30.47 99.89"/><circle class="cls-1" cx="29.88" cy="81.9" r="13.92"/><circle class="cls-1" cx="29.88" cy="81.9" r="17.52"/><line class="cls-2" x1="28.62" y1="82.48" x2="20.87" y2="79.48"/><line class="cls-2" x1="31.78" y1="81.54" x2="34.25" y2="77.2"/><circle class="cls-2" cx="30.27" cy="83.13" r="1.68"/><path class="cls-1" d="M59.28,21.5c0-11.6-9.81-21-21.91-21s-21.91,9.4-21.91,21A20.658,20.658,0,0,0,23.9,38.06a22.3,22.3,0,0,0,10.73,4.25L38,51l2.7-8.79C51.21,40.7,59.28,32,59.28,21.5Z" transform="translate(0 0)"/><g id="Ebene_1-3" data-name="Ebene 1-3"><path class="cls-2" d="M42.61,13.54h-.23a6.43,6.43,0,0,0-5,2.39,7,7,0,0,0-5-2.39h-.22A6.391,6.391,0,0,0,26,19.91a6.819,6.819,0,0,0,2,4.78L37.37,34l9.33-9.33a6.29,6.29,0,0,0,2-4.66,6.269,6.269,0,0,0-6.045-6.487l-.095,0Z" transform="translate(0 0)"/></g></g></g></svg>