<svg id="Ebene_1" data-name="Ebene 1" xmlns="http://www.w3.org/2000/svg" width="83.39" height="148" viewBox="0 0 83.39 148"><defs><style>.cls-1,.cls-3{fill:none;stroke-linecap:round;stroke-linejoin:round;}.cls-1{stroke:#81949c;}.cls-2{fill:#81949c;}.cls-3{stroke:#c39052;}</style></defs><title>01</title><g id="Ebene_2" data-name="Ebene 2"><g id="Ebene_1-2" data-name="Ebene 1-2"><polyline class="cls-1" points="57.92 107.62 57.92 147.5 18.92 147.5 18.22 106.99"/><polyline class="cls-1" points="18.92 42.15 18.92 0.5 57.92 0.5 57.92 42.32"/><polyline class="cls-1" points="18.17 31.83 13.17 31.5 7.67 52.84"/><polyline class="cls-1" points="18.17 115.5 13.17 115.84 9.29 99.16"/><polyline class="cls-1" points="58.67 31.83 62.67 31.5 67.17 49.84"/><polyline class="cls-1" points="58.67 115.5 62.67 115.84 66.36 100.79"/><path class="cls-2" d="M38.34,120.5a1.01,1.01,0,0,1-.38-.08,1.165,1.165,0,0,1-.33-.21,1,1,0,0,1-.29-.71,1.05,1.05,0,0,1,.29-.71,1,1,0,0,1,1.09-.21.925.925,0,0,1,.33.21,1.05,1.05,0,0,1,.29.71.846.846,0,0,1-.08.38,1.165,1.165,0,0,1-.21.33A1,1,0,0,1,38.34,120.5Z" transform="translate(0.08 0)"/><path class="cls-2" d="M37.34,130a1,1,0,0,1,1-1h0a1,1,0,0,1,1,1h0a1,1,0,0,1-1,1h0A1,1,0,0,1,37.34,130Z" transform="translate(0.08 0)"/><path class="cls-2" d="M38.34,141.5a1,1,0,0,1-.92-1.38,1.165,1.165,0,0,1,.21-.33,1,1,0,0,1,1.09-.21.9.9,0,0,1,.54.54.94.94,0,0,1,0,.76.9.9,0,0,1-.54.54A1.01,1.01,0,0,1,38.34,141.5Z" transform="translate(0.08 0)"/><path class="cls-2" d="M38.34,12.5a1,1,0,1,1,.71-1.71.925.925,0,0,1,.21.33,1.01,1.01,0,0,1,.08.38,1.05,1.05,0,0,1-.29.71l-.15.12a.758.758,0,0,1-.18.09.61.61,0,0,1-.19.06Z" transform="translate(0.08 0)"/><path class="cls-2" d="M37.34,22a1,1,0,0,1,1-1h0a1,1,0,0,1,1,1h0a1,1,0,0,1-1,1h0A1,1,0,0,1,37.34,22Z" transform="translate(0.08 0)"/><path class="cls-2" d="M38.34,33.5a1,1,0,1,1,.38-1.92,1.165,1.165,0,0,1,.33.21,1.05,1.05,0,0,1,.29.71,1.335,1.335,0,0,1,0,.2.636.636,0,0,1-.06.18.556.556,0,0,1-.09.17l-.12.16a1.165,1.165,0,0,1-.33.21A1,1,0,0,1,38.34,33.5Z" transform="translate(0.08 0)"/><path class="cls-1" d="M75.35,84a38,38,0,1,1-.87-21" transform="translate(0.08 0)"/><path class="cls-3" d="M11.09,82.5s3,2,5,2,6-3,7,0,0,7,5,7,5,0,4-11c0,0-5-3-5-6v-15c0-2-3-6-4-8" transform="translate(0.08 0)"/><path class="cls-3" d="M47.09,47.5s-10.62,8-11,11c-.74,5.75-1.39,10.45,1,12,3,2,2,4,9,4s7-5,10-4,4,4,3,7-6,8-8,9-1,15-1,15" transform="translate(0.08 0)"/><circle class="cls-1" cx="38.67" cy="75" r="29"/><path class="cls-3" d="M68.81,79.69l.06-1.47,6-3.44.17-4a1.1,1.1,0,0,1,1.139-1.06h0a1.11,1.11,0,0,1,1.06,1.15l-.16,4,5.73,3.91-.06,1.47L77,78.17l-.17,4,1.43,1.17v1.1l-2.54-.84-2.6.63v-1.1l1.51-1,.16-4Z" transform="translate(0.08 0)"/></g></g></svg>